<svg width="134" height="36" viewBox="0 0 134 36" fill="none" xmlns="http://www.w3.org/2000/svg">
<path d="M18.4254 33.6795C16.4096 34.0314 14.3584 34.1369 12.2365 34.4179L5.76449 15.5743V35.2266C3.74873 35.4375 1.90976 35.7188 0 36V0H5.3757L12.7316 20.4261V0H18.4254V33.6795ZM29.5656 13.1836C31.7584 13.1836 35.1181 13.0781 37.1338 13.0781V18.703C34.6228 18.703 31.6876 18.703 29.5656 18.8085V27.1758C32.8901 26.9649 36.2144 26.6834 39.574 26.5779V31.9917L23.907 33.2224V0H39.574V5.62501H29.5656V13.1836V13.1836ZM60.6164 5.62514H54.7458V31.5001C52.836 31.5001 50.9263 31.5001 49.0876 31.5702V5.62514H43.217V0H60.6167L60.6164 5.62514V5.62514ZM69.8114 12.797H77.5566V18.4219H69.8114V31.1837H64.2586V0H80.0675V5.62501H69.8114V12.797V12.797ZM89.2625 26.2617C92.4808 26.3318 95.7342 26.5783 98.8819 26.7538V32.3086C93.8247 31.992 88.7674 31.676 83.6041 31.5702V0H89.2625V26.2617ZM103.656 32.6953C105.46 32.8009 107.37 32.9064 109.209 33.1171V0H103.656V32.6953V32.6953ZM134 0L126.821 17.1211L134 36C131.878 35.7188 129.756 35.332 127.634 34.9804L123.567 24.5744L119.43 34.1369C117.378 33.785 115.398 33.6795 113.347 33.3983L120.632 16.91L114.054 0H120.136L123.85 9.45705L127.811 0H134V0Z" fill="#B9090B"/>
</svg>
